<?xml version="1.0" encoding="UTF-8" standalone="no"?>
<!-- Created with Inkscape (http://www.inkscape.org/) -->

<svg
   xmlns:osb="http://www.openswatchbook.org/uri/2009/osb"
   xmlns:dc="http://purl.org/dc/elements/1.1/"
   xmlns:cc="http://creativecommons.org/ns#"
   xmlns:rdf="http://www.w3.org/1999/02/22-rdf-syntax-ns#"
   xmlns:svg="http://www.w3.org/2000/svg"
   xmlns="http://www.w3.org/2000/svg"
   xmlns:sodipodi="http://sodipodi.sourceforge.net/DTD/sodipodi-0.dtd"
   xmlns:inkscape="http://www.inkscape.org/namespaces/inkscape"
   width="56mm"
   height="56mm"
   viewBox="0 0 56 55.999998"
   version="1.1"
   id="svg8"
   sodipodi:docname="liform-material.svg"
   inkscape:label="BoxShadow1"
   inkscape:version="0.92.5 (2060ec1f9f, 2020-04-08)">
  <defs
     id="defs2">
    <linearGradient
       id="linearGradient5890"
       osb:paint="solid">
      <stop
         style="stop-color:#04d774;stop-opacity:1;"
         offset="0"
         id="stop5888" />
    </linearGradient>
  </defs>
  <sodipodi:namedview
     id="base"
     pagecolor="#ffffff"
     bordercolor="#666666"
     borderopacity="1.0"
     inkscape:pageopacity="0.0"
     inkscape:pageshadow="2"
     inkscape:zoom="2.8284273"
     inkscape:cx="6.2344265"
     inkscape:cy="97.861872"
     inkscape:document-units="mm"
     inkscape:current-layer="layer1"
     showgrid="false"
     showguides="true"
     inkscape:guide-bbox="true"
     inkscape:window-width="1848"
     inkscape:window-height="1023"
     inkscape:window-x="1920"
     inkscape:window-y="27"
     inkscape:window-maximized="1"
     fit-margin-top="0"
     fit-margin-left="0"
     fit-margin-right="0"
     fit-margin-bottom="0" />
  <metadata
     id="metadata5">
    <rdf:RDF>
      <cc:Work
         rdf:about="">
        <dc:format>image/svg+xml</dc:format>
        <dc:type
           rdf:resource="http://purl.org/dc/dcmitype/StillImage" />
        <dc:title />
      </cc:Work>
    </rdf:RDF>
  </metadata>
  <g
     inkscape:label="Ebene 1"
     inkscape:groupmode="layer"
     id="layer1"
     transform="translate(-27.106689,-151.00002)">
    <g
       id="g5886"
       transform="translate(2.1066889)">
      <circle
         sodipodi:insensitive="true"
         inkscape:label="Fab"
         r="28"
         cy="179.00002"
         cx="53"
         id="path844"
         style="display:inline;fill:#1976d2;fill-opacity:1;stroke-width:0.09428089" />
    </g>
    <path
       style="fill:none;fill-opacity:1;stroke:#61dbfb;stroke-width:1.5;stroke-miterlimit:4;stroke-dasharray:none;stroke-opacity:1;opacity:0.22569444"
       d="m 44.293872,201.51697 c -0.684292,-0.0572 -1.02114,-0.15601 -1.659189,-0.48681 -2.763795,-1.43288 -3.670879,-6.2403 -2.380606,-12.6169 0.09389,-0.46398 0.146586,-0.86545 0.117109,-0.89215 -0.02948,-0.0267 -0.359462,-0.14805 -0.7333,-0.26967 -3.77126,-1.22696 -7.042119,-3.15304 -8.557779,-5.03934 -0.50412,-0.62739 -1.003973,-1.57257 -1.161618,-2.19651 -0.131097,-0.51886 -0.129468,-1.44248 0.0035,-2.00681 0.394042,-1.67189 2.012181,-3.45052 4.461861,-4.90442 1.433534,-0.85081 3.302878,-1.68778 5.15204,-2.30674 0.434784,-0.14554 0.790422,-0.30284 0.801401,-0.35448 0.01086,-0.0511 -0.05664,-0.47275 -0.149995,-0.93709 -1.275549,-6.34462 -0.350063,-11.10933 2.430485,-12.51294 1.771704,-0.89435 4.311653,-0.52548 7.139199,1.03682 1.567251,0.86595 3.026122,1.93033 4.965659,3.62291 l 0.380303,0.33188 0.355951,-0.33426 c 1.641714,-1.54163 3.879634,-3.12463 5.657663,-4.00197 1.148164,-0.56654 1.915034,-0.83995 2.95672,-1.05414 1.42038,-0.29205 2.842786,-0.0788 3.825715,0.57367 1.372286,0.91087 2.240382,2.71303 2.540694,5.27446 0.212181,1.80973 0.03701,4.53178 -0.451478,7.01576 -0.111429,0.56662 -0.195583,1.03562 -0.187006,1.04222 0.0086,0.007 0.32146,0.11151 0.695299,0.23316 1.122434,0.36523 2.863947,1.07455 3.857524,1.57117 1.806793,0.90309 2.900123,1.64042 3.999669,2.69731 1.047988,1.00734 1.663713,1.95521 1.930361,2.97166 0.138966,0.52974 0.142018,1.52585 0.0062,2.0497 -0.539319,2.0813 -2.674206,4.11325 -6.055445,5.76346 -0.983527,0.48001 -2.802014,1.21268 -3.738383,1.50619 -0.336455,0.10546 -0.622499,0.19849 -0.635652,0.20674 -0.01315,0.008 0.03986,0.31518 0.117797,0.68209 0.443992,2.09005 0.585825,3.41997 0.585825,5.49303 0,1.40359 -0.02582,1.92067 -0.125486,2.51288 -0.773051,4.59348 -3.390822,6.24887 -7.635566,4.82849 -2.097211,-0.70177 -4.425425,-2.16201 -6.91465,-4.33681 l -0.741727,-0.64804 -0.753625,0.66234 c -3.303336,2.90321 -6.543062,4.64286 -8.978069,4.82098 -0.336453,0.0246 -0.841135,0.0256 -1.121515,0.002 z m 1.549197,-2.34216 c 1.602545,-0.32954 3.724454,-1.47851 5.80629,-3.14399 0.797058,-0.63765 1.766032,-1.48211 1.804785,-1.57288 0.01002,-0.0235 -0.260401,-0.34689 -0.600943,-0.71869 -0.882045,-0.96303 -2.156043,-2.49537 -2.978536,-3.58252 -0.553719,-0.7319 -0.74084,-0.93383 -0.865348,-0.93383 -0.611347,0 -3.796655,-0.51841 -5.455876,-0.88795 -0.500695,-0.11151 -0.918112,-0.19439 -0.92759,-0.18417 -0.03792,0.0409 -0.310745,1.49833 -0.436075,2.32957 -0.532736,3.53335 -0.228182,6.49306 0.818047,7.94991 0.555746,0.77386 1.494234,1.02032 2.835246,0.74455 z m 20.707316,-0.16228 c 0.413516,-0.20018 0.750152,-0.6013 1.056861,-1.25932 0.50474,-1.08289 0.681452,-2.13658 0.681932,-4.06621 2.57e-4,-1.46334 -0.110201,-2.64717 -0.385188,-4.12425 -0.09395,-0.50468 -0.187866,-1.01775 -0.20869,-1.14016 -0.02084,-0.1224 -0.06352,-0.23841 -0.09486,-0.25778 -0.03135,-0.0194 -0.539555,0.072 -1.129347,0.20313 -1.294934,0.28783 -3.096351,0.5944 -4.448003,0.75697 l -0.996688,0.11987 -0.430325,0.5838 c -0.748176,1.01501 -1.995677,2.54307 -2.911157,3.56586 -0.486449,0.54348 -0.882874,1.01245 -0.880945,1.04216 0.005,0.0764 1.36546,1.23833 2.154503,1.84011 3.153812,2.4053 6.089412,3.46317 7.591912,2.73582 z m -10.685851,-6.98585 c 0.729921,-0.812 1.679294,-1.94011 1.935281,-2.29962 l 0.141193,-0.1983 h -2.838447 -2.83845 l 0.29503,0.37384 c 0.589745,0.74728 2.502784,2.92274 2.570175,2.92274 0.0095,0 0.340363,-0.3594 0.735218,-0.79866 z m 1.037881,-4.7737 c 0.859829,-0.0349 1.8612,-0.0845 2.225269,-0.11027 l 0.661946,-0.0469 0.66975,-1.02657 c 1.351968,-2.07225 2.241008,-3.61756 3.307605,-5.74919 l 0.662527,-1.32408 -0.525267,-1.05489 c -1.018971,-2.0464 -2.00947,-3.76344 -3.377214,-5.85444 l -0.738578,-1.12914 -0.389474,-0.0412 c -0.21421,-0.0226 -1.280758,-0.0781 -2.370106,-0.12315 -1.879904,-0.0778 -4.40412,-0.0267 -6.157567,0.12455 l -0.457525,0.0395 -0.67153,1.02735 c -1.279841,1.95798 -2.273159,3.68519 -3.305472,5.74764 l -0.653402,1.30543 0.708666,1.40523 c 1.052327,2.08668 2.018412,3.74861 3.239478,5.57277 l 0.713691,1.06619 0.50978,0.0517 c 0.49913,0.0506 2.864534,0.15695 3.874323,0.17418 0.28038,0.005 1.213275,-0.0198 2.0731,-0.0547 z m -9.481895,-0.57714 c 0,-0.0177 -0.209228,-0.36179 -0.464952,-0.76467 -0.664101,-1.04628 -1.351522,-2.22878 -1.879996,-3.23396 -0.251611,-0.47858 -0.47037,-0.85724 -0.48613,-0.84148 -0.12174,0.12174 -1.43797,4.03208 -1.37434,4.08297 0.07165,0.0573 2.494515,0.53989 3.729624,0.74285 0.263574,0.0433 0.475794,0.0497 0.475794,0.0143 z m 16.757148,-0.17421 c 1.101774,-0.199 2.10662,-0.40768 2.624565,-0.54505 l 0.247991,-0.0658 -0.286117,-0.89984 c -0.330729,-1.04017 -0.80793,-2.38017 -1.0222,-2.87038 l -0.148275,-0.33922 -0.328217,0.6111 c -0.663369,1.23514 -1.363559,2.46767 -1.872402,3.29595 -0.287075,0.4673 -0.543825,0.88787 -0.570558,0.9346 -0.0706,0.12341 0.06921,0.11089 1.355213,-0.12139 z m -22.883945,-2.18961 c 0.344985,-1.13698 1.012159,-2.9532 1.584904,-4.31451 l 0.406831,-0.96697 -0.37169,-0.86824 c -0.500016,-1.16801 -1.182012,-3.00729 -1.611657,-4.34649 l -0.35267,-1.09928 -0.859689,0.29452 c -3.08146,1.05567 -5.334404,2.29888 -6.774455,3.73824 -1.695501,1.6947 -1.67275,2.91923 0.08597,4.62679 1.051598,1.02101 3.044154,2.21524 5.047138,3.025 0.924329,0.37368 2.316057,0.87172 2.44821,0.8761 0.07454,0.003 0.184904,-0.26577 0.397113,-0.96516 z m 29.294067,0.53066 c 1.997763,-0.72527 3.431931,-1.42297 4.768647,-2.31987 2.158018,-1.44798 3.104081,-2.91299 2.688715,-4.16354 -0.501157,-1.50884 -3.140278,-3.48996 -6.359128,-4.77364 -1.246394,-0.49706 -2.451026,-0.88106 -2.481613,-0.79106 -0.01521,0.0448 -0.254836,0.7696 -0.532498,1.61073 -0.430772,1.30496 -1.033591,2.90157 -1.604429,4.24946 l -0.144476,0.34114 0.412801,0.97718 c 0.544027,1.28783 1.202043,3.06261 1.596107,4.30496 0.174903,0.55141 0.347615,1.00256 0.383806,1.00256 0.03619,0 0.60862,-0.19706 1.272068,-0.43792 z M 45.094244,175.3399 c 0.536671,-1.02349 1.206713,-2.19177 1.875609,-3.27028 0.251867,-0.40611 0.44798,-0.74834 0.435805,-0.76051 -0.05235,-0.0523 -3.476985,0.58548 -4.080367,0.75996 -0.06542,0.0189 -0.118948,0.08 -0.118948,0.13586 0,0.21584 1.321826,4.03558 1.396519,4.03558 0.01053,0 0.231651,-0.40527 0.491382,-0.90061 z m 20.97923,-0.37175 c 0.442111,-1.21875 0.9463,-2.80481 0.904803,-2.84631 -0.103031,-0.10303 -4.115119,-0.87916 -4.184751,-0.80953 -0.01454,0.0146 0.247166,0.46409 0.581596,0.99897 0.63228,1.01125 1.237932,2.05978 1.852622,3.20732 0.278992,0.52084 0.373327,0.64711 0.420486,0.56285 0.03344,-0.0597 0.224797,-0.56074 0.425244,-1.1133 z m -22.221411,-5.34909 c 1.298454,-0.28423 2.736749,-0.53001 4.199785,-0.71767 0.590225,-0.0757 1.085755,-0.13765 1.101178,-0.13765 0.01542,0 0.248818,-0.29822 0.518658,-0.66271 0.90325,-1.22009 2.144229,-2.72006 3.212596,-3.88307 0.287735,-0.31322 0.512013,-0.60379 0.498393,-0.64572 -0.03914,-0.12048 -1.231073,-1.15114 -2.087829,-1.80535 -2.122587,-1.62077 -4.145813,-2.65362 -5.742956,-2.93175 -0.629987,-0.1097 -1.446768,-0.0475 -1.83339,0.13968 -0.864987,0.41874 -1.505361,1.74117 -1.728544,3.56961 -0.171725,1.40687 -0.0558,3.86347 0.267815,5.67555 0.222873,1.24795 0.337254,1.69444 0.426366,1.66431 0.04422,-0.0149 0.569787,-0.1343 1.167928,-0.26523 z m 23.812301,-0.0567 c 0.116279,-0.46193 0.403138,-2.1938 0.498182,-3.0077 0.114021,-0.97641 0.113307,-3.50655 -0.0013,-4.21418 -0.291907,-1.8041 -0.86109,-2.96661 -1.649412,-3.36878 -1.492483,-0.76141 -4.561888,0.36357 -7.706354,2.82448 -0.716377,0.56065 -2.073103,1.72729 -2.073103,1.78264 0,0.0179 0.3017,0.35836 0.670445,0.75653 0.856725,0.9251 2.004195,2.30359 2.908238,3.49376 0.390452,0.51402 0.722586,0.93459 0.738075,0.93459 0.01549,0 0.511073,0.0617 1.101298,0.13717 1.367156,0.17474 3.212001,0.49236 4.301742,0.74059 1.162322,0.26477 1.124903,0.26721 1.212078,-0.0791 z m -9.76111,-1.10453 c -0.154405,-0.26393 -1.585733,-1.93703 -2.380228,-2.78229 l -0.442985,-0.47129 -0.448223,0.47138 c -0.672813,0.70757 -2.385431,2.7349 -2.385366,2.82371 1.2e-5,0.0145 1.281745,0.0265 2.848294,0.0265 1.880042,0 2.834756,-0.0231 2.808508,-0.068 z"
       id="path882"
       inkscape:connector-curvature="0"
       sodipodi:nodetypes="cccccsccsscssssccssssccsssccccccsscscsccccscsssccssccccccccsccccscscccccsscccsscssccsscsscsscccccsccccccscccscsccsssccscccsscscsccccccssscssscssscccssccccssscssssscccsccssscssscccccccsc"
       inkscape:transform-center-x="8.5526249"
       inkscape:transform-center-y="21.648832" />
    <g
       id="g827"
       transform="matrix(2.0736,0,0,2.0736,-59.161511,-192.24854)">
      <path
         inkscape:transform-center-y="25.736658"
         inkscape:transform-center-x="9.8037813"
         inkscape:connector-curvature="0"
         id="path837"
         d="m 51.454916,185.05229 c -0.61422,-0.2885 -0.874787,-0.82471 -0.65564,-1.3492 0.254104,-0.60816 1.016074,-0.81066 1.44319,-0.38355 0.325604,0.3256 0.325558,0.70791 -8e-5,1.01994 -0.500607,0.47961 0.07506,0.61075 0.742403,0.16913 0.756087,-0.50036 1.178185,-1.58848 1.774579,-4.57468 0.223223,-1.1177 0.459036,-2.20673 0.524036,-2.42007 l 0.118168,-0.38791 -0.501935,-0.45007 c -1.116946,-1.00152 -2.174333,-1.1667 -2.539708,-0.39674 -0.183493,0.38668 -0.09674,0.61155 0.511214,1.32509 0.57598,0.67602 0.913027,1.29735 0.913564,1.68413 0.0015,1.09034 -0.985426,1.9442 -2.241775,1.93947 -1.299763,-0.005 -2.324634,-0.76167 -2.324634,-1.7165 0,-0.47032 0.247257,-0.75314 0.658439,-0.75314 0.540174,0 0.861135,0.50069 0.649722,1.01355 -0.20476,0.49672 -0.199072,0.67405 0.02636,0.82175 0.696198,0.45617 1.601815,0.0541 1.601815,-0.71121 0,-0.26463 -0.07308,-0.3874 -0.521357,-0.87588 -0.659473,-0.71862 -0.892653,-1.18683 -0.891756,-1.7906 9.24e-4,-0.55436 0.210787,-1.00199 0.660596,-1.40837 0.477584,-0.43147 0.956022,-0.58602 1.669324,-0.53926 0.728352,0.0478 1.23624,0.28817 1.945219,0.92078 l 0.503795,0.44952 0.258187,-0.59392 c 0.881278,-2.02725 2.041898,-3.12416 3.409929,-3.22275 1.048878,-0.0756 1.786269,0.34644 1.80426,1.03264 0.02257,0.86031 -1.003128,1.21055 -1.411513,0.48199 -0.106186,-0.18944 -0.10827,-0.25967 -0.01452,-0.48939 0.219335,-0.53746 0.187086,-0.59469 -0.333885,-0.59253 -0.420273,0.002 -0.495696,0.03 -0.761627,0.28547 -0.30823,0.29611 -0.540873,0.68928 -0.742218,1.25439 -0.154943,0.43487 -0.517417,2.10418 -0.517417,2.38288 v 0.21626 l 0.553421,-0.0396 c 0.600139,-0.0429 1.159439,-0.25725 1.159439,-0.44427 0,-0.0644 -0.05655,-0.22646 -0.125669,-0.36011 -0.105822,-0.20464 -0.108923,-0.27794 -0.01964,-0.46421 0.249799,-0.52119 0.863811,-0.51589 1.08327,0.009 0.215667,0.51617 -0.100579,1.05301 -0.830758,1.41025 -0.379491,0.18568 -0.602508,0.23357 -1.211556,0.26021 l -0.746448,0.0326 -0.143194,0.82686 c -0.592744,3.42268 -1.753111,5.45978 -3.588667,6.30013 -0.640031,0.29301 -1.422087,0.34587 -1.886918,0.12754 z"
         style="fill:#61dbfb;fill-opacity:1;stroke:#000000;stroke-width:1;stroke-miterlimit:4;stroke-dasharray:none;stroke-opacity:1" />
      <path
         style="fill:#61dbfb;fill-opacity:1;stroke:#000000;stroke-width:0.30840001;stroke-miterlimit:4;stroke-dasharray:none;stroke-opacity:0"
         d="m 51.454916,185.05229 c -0.61422,-0.2885 -0.874787,-0.82471 -0.65564,-1.3492 0.254104,-0.60816 1.016074,-0.81066 1.44319,-0.38355 0.325604,0.3256 0.325558,0.70791 -8e-5,1.01994 -0.500607,0.47961 0.07506,0.61075 0.742403,0.16913 0.756087,-0.50036 1.178185,-1.58848 1.774579,-4.57468 0.223223,-1.1177 0.459036,-2.20673 0.524036,-2.42007 l 0.118168,-0.38791 -0.501935,-0.45007 c -1.116946,-1.00152 -2.174333,-1.1667 -2.539708,-0.39674 -0.183493,0.38668 -0.09674,0.61155 0.511214,1.32509 0.57598,0.67602 0.913027,1.29735 0.913564,1.68413 0.0015,1.09034 -0.985426,1.9442 -2.241775,1.93947 -1.299763,-0.005 -2.324634,-0.76167 -2.324634,-1.7165 0,-0.47032 0.247257,-0.75314 0.658439,-0.75314 0.540174,0 0.861135,0.50069 0.649722,1.01355 -0.20476,0.49672 -0.199072,0.67405 0.02636,0.82175 0.696198,0.45617 1.601815,0.0541 1.601815,-0.71121 0,-0.26463 -0.07308,-0.3874 -0.521357,-0.87588 -0.659473,-0.71862 -0.892653,-1.18683 -0.891756,-1.7906 9.24e-4,-0.55436 0.210787,-1.00199 0.660596,-1.40837 0.477584,-0.43147 0.956022,-0.58602 1.669324,-0.53926 0.728352,0.0478 1.23624,0.28817 1.945219,0.92078 l 0.503795,0.44952 0.258187,-0.59392 c 0.881278,-2.02725 2.041898,-3.12416 3.409929,-3.22275 1.048878,-0.0756 1.786269,0.34644 1.80426,1.03264 0.02257,0.86031 -1.003128,1.21055 -1.411513,0.48199 -0.106186,-0.18944 -0.10827,-0.25967 -0.01452,-0.48939 0.219335,-0.53746 0.187086,-0.59469 -0.333885,-0.59253 -0.420273,0.002 -0.495696,0.03 -0.761627,0.28547 -0.30823,0.29611 -0.540873,0.68928 -0.742218,1.25439 -0.154943,0.43487 -0.517417,2.10418 -0.517417,2.38288 v 0.21626 l 0.553421,-0.0396 c 0.600139,-0.0429 1.159439,-0.25725 1.159439,-0.44427 0,-0.0644 -0.05655,-0.22646 -0.125669,-0.36011 -0.105822,-0.20464 -0.108923,-0.27794 -0.01964,-0.46421 0.249799,-0.52119 0.863811,-0.51589 1.08327,0.009 0.215667,0.51617 -0.100579,1.05301 -0.830758,1.41025 -0.379491,0.18568 -0.602508,0.23357 -1.211556,0.26021 l -0.746448,0.0326 -0.143194,0.82686 c -0.592744,3.42268 -1.753111,5.45978 -3.588667,6.30013 -0.640031,0.29301 -1.422087,0.34587 -1.886918,0.12754 z"
         id="path2060"
         inkscape:connector-curvature="0"
         inkscape:transform-center-x="9.8037813"
         inkscape:transform-center-y="25.736658" />
    </g>
  </g>
</svg>
