<?xml version="1.0" encoding="UTF-8" standalone="no"?>
<!-- Created with Inkscape (http://www.inkscape.org/) -->

<svg
   xmlns:dc="http://purl.org/dc/elements/1.1/"
   xmlns:cc="http://creativecommons.org/ns#"
   xmlns:rdf="http://www.w3.org/1999/02/22-rdf-syntax-ns#"
   xmlns:svg="http://www.w3.org/2000/svg"
   xmlns="http://www.w3.org/2000/svg"
   xmlns:sodipodi="http://sodipodi.sourceforge.net/DTD/sodipodi-0.dtd"
   xmlns:inkscape="http://www.inkscape.org/namespaces/inkscape"
   width="196.84586mm"
   height="175.43152mm"
   viewBox="0 0 196.84586 175.43152"
   version="1.1"
   id="svg8"
   inkscape:version="0.92.5 (2060ec1f9f, 2020-04-08)"
   sodipodi:docname="liform-react-final.svg"
   inkscape:export-xdpi="33.42004"
   inkscape:export-ydpi="33.42004">
  <defs
     id="defs2" />
  <sodipodi:namedview
     id="base"
     pagecolor="#ffffff"
     bordercolor="#666666"
     borderopacity="1.0"
     inkscape:pageopacity="0.0"
     inkscape:pageshadow="2"
     inkscape:zoom="0.9899495"
     inkscape:cx="238.41437"
     inkscape:cy="271.98241"
     inkscape:document-units="mm"
     inkscape:current-layer="layer1"
     showgrid="false"
     inkscape:window-width="1848"
     inkscape:window-height="1023"
     inkscape:window-x="1920"
     inkscape:window-y="27"
     inkscape:window-maximized="1"
     fit-margin-top="0"
     fit-margin-left="0"
     fit-margin-right="0"
     fit-margin-bottom="0" />
  <metadata
     id="metadata5">
    <rdf:RDF>
      <cc:Work
         rdf:about="">
        <dc:format>image/svg+xml</dc:format>
        <dc:type
           rdf:resource="http://purl.org/dc/dcmitype/StillImage" />
        <dc:title />
      </cc:Work>
    </rdf:RDF>
  </metadata>
  <g
     inkscape:label="Ebene 1"
     inkscape:groupmode="layer"
     id="layer1"
     transform="translate(-11.925754,-36.800484)">
    <path
       style="fill:#000000;stroke:#a3ebfd;stroke-width:11;stroke-miterlimit:4;stroke-dasharray:none;stroke-opacity:1"
       d="m 94.716405,150.38311 c -2.630008,-1.23533 -3.745725,-3.5313 -2.807363,-5.77712 1.088036,-2.60404 4.350707,-3.47115 6.17956,-1.64232 1.394197,1.3942 1.393999,3.03121 -3.56e-4,4.36725 -2.143529,2.05364 0.321393,2.61518 3.178874,0.72419 3.23747,-2.14245 5.04484,-6.80166 7.59853,-19.58819 0.95582,-4.78583 1.96555,-9.44893 2.24385,-10.36245 l 0.506,-1.66094 -2.14924,-1.92715 c -4.78262,-4.28842 -9.31022,-4.9957 -10.874698,-1.69882 -0.785691,1.65572 -0.41423,2.61858 2.188958,5.67389 2.46627,2.89463 3.90945,5.55508 3.91176,7.21122 0.007,4.66872 -4.21948,8.32484 -9.599002,8.30455 -5.565424,-0.021 -9.953794,-3.26138 -9.953794,-7.3498 0,-2.01387 1.058723,-3.22488 2.819352,-3.22488 2.312957,0 3.687275,2.14389 2.782032,4.33991 -0.876757,2.12689 -0.852403,2.88617 0.11286,3.51862 2.981035,1.95326 6.858766,0.23154 6.858766,-3.04529 0,-1.13313 -0.312906,-1.65881 -2.232377,-3.75043 -2.823784,-3.07702 -3.822232,-5.08185 -3.81839,-7.66714 0.004,-2.3737 0.902563,-4.29039 2.828588,-6.03043 2.044957,-1.84751 4.093577,-2.50929 7.147835,-2.30905 3.11872,0.20448 5.29342,1.23388 8.32918,3.94264 l 2.15719,1.92481 1.10554,-2.5431 c 3.77352,-8.68042 8.74315,-13.377259 14.60087,-13.799421 4.49119,-0.323677 7.64859,1.483403 7.72562,4.421631 0.0966,3.68374 -4.29525,5.18342 -6.04392,2.06382 -0.45468,-0.81113 -0.4636,-1.11188 -0.0622,-2.0955 0.93916,-2.30134 0.80108,-2.546399 -1.42966,-2.537146 -1.79955,0.0079 -2.12249,0.128568 -3.26118,1.222376 -1.3198,1.26787 -2.31595,2.9514 -3.17808,5.37113 -0.66346,1.86204 -2.21553,9.00986 -2.21553,10.20319 v 0.92598 l 2.36969,-0.16954 c 2.56971,-0.18386 4.96456,-1.10153 4.96456,-1.90232 0,-0.27579 -0.24214,-0.96967 -0.53808,-1.54196 -0.45312,-0.87623 -0.4664,-1.19008 -0.0841,-1.98767 1.06963,-2.23167 3.69874,-2.20899 4.63843,0.04 0.92347,2.21017 -0.43065,4.50886 -3.55719,6.03853 -1.62494,0.79502 -2.57986,1.00009 -5.18773,1.11415 l -3.19621,0.13979 -0.61314,3.54052 c -2.53804,14.65548 -7.50659,23.37807 -15.36621,26.97632 -2.74055,1.25466 -6.089214,1.48102 -8.079556,0.54614 z"
       id="path837"
       inkscape:connector-curvature="0"
       inkscape:transform-center-x="8.1698178"
       inkscape:transform-center-y="21.447215" />
    <path
       style="fill:#000000;stroke-width:0.34925002"
       d="m 94.716405,150.38311 c -2.630008,-1.23533 -3.745725,-3.5313 -2.807363,-5.77712 1.088036,-2.60404 4.350707,-3.47115 6.17956,-1.64232 1.394197,1.3942 1.393999,3.03121 -3.56e-4,4.36725 -2.143529,2.05364 0.321393,2.61518 3.178874,0.72419 3.23747,-2.14245 5.04484,-6.80166 7.59853,-19.58819 0.95582,-4.78583 1.96555,-9.44893 2.24385,-10.36245 l 0.506,-1.66094 -2.14924,-1.92715 c -4.78262,-4.28842 -9.31022,-4.9957 -10.874698,-1.69882 -0.785691,1.65572 -0.41423,2.61858 2.188958,5.67389 2.46627,2.89463 3.90945,5.55508 3.91176,7.21122 0.007,4.66872 -4.21948,8.32484 -9.599002,8.30455 -5.565424,-0.021 -9.953794,-3.26138 -9.953794,-7.3498 0,-2.01387 1.058723,-3.22488 2.819352,-3.22488 2.312957,0 3.687275,2.14389 2.782032,4.33991 -0.876757,2.12689 -0.852403,2.88617 0.11286,3.51862 2.981035,1.95326 6.858766,0.23154 6.858766,-3.04529 0,-1.13313 -0.312906,-1.65881 -2.232377,-3.75043 -2.823784,-3.07702 -3.822232,-5.08185 -3.81839,-7.66714 0.004,-2.3737 0.902563,-4.29039 2.828588,-6.03043 2.044957,-1.84751 4.093577,-2.50929 7.147835,-2.30905 3.11872,0.20448 5.29342,1.23388 8.32918,3.94264 l 2.15719,1.92481 1.10554,-2.5431 c 3.77352,-8.68042 8.74315,-13.377259 14.60087,-13.799421 4.49119,-0.323677 7.64859,1.483403 7.72562,4.421631 0.0966,3.68374 -4.29525,5.18342 -6.04392,2.06382 -0.45468,-0.81113 -0.4636,-1.11188 -0.0622,-2.0955 0.93916,-2.30134 0.80108,-2.546399 -1.42966,-2.537146 -1.79955,0.0079 -2.12249,0.128568 -3.26118,1.222376 -1.3198,1.26787 -2.31595,2.9514 -3.17808,5.37113 -0.66346,1.86204 -2.21553,9.00986 -2.21553,10.20319 v 0.92598 l 2.36969,-0.16954 c 2.56971,-0.18386 4.96456,-1.10153 4.96456,-1.90232 0,-0.27579 -0.24214,-0.96967 -0.53808,-1.54196 -0.45312,-0.87623 -0.4664,-1.19008 -0.0841,-1.98767 1.06963,-2.23167 3.69874,-2.20899 4.63843,0.04 0.92347,2.21017 -0.43065,4.50886 -3.55719,6.03853 -1.62494,0.79502 -2.57986,1.00009 -5.18773,1.11415 l -3.19621,0.13979 -0.61314,3.54052 c -2.53804,14.65548 -7.50659,23.37807 -15.36621,26.97632 -2.74055,1.25466 -6.089214,1.48102 -8.079556,0.54614 z"
       id="path816"
       inkscape:connector-curvature="0"
       inkscape:transform-center-x="8.1698178"
       inkscape:transform-center-y="21.447215" />
    <path
       style="fill:#61dbfb;fill-opacity:1;stroke-width:0.26458332"
       d="m 68.262239,212.16604 c -2.663688,-0.22257 -3.974907,-0.60728 -6.458585,-1.89493 -10.758387,-5.57765 -14.289315,-24.29111 -9.266777,-49.11272 0.365464,-1.80613 0.5706,-3.3689 0.455858,-3.47281 -0.114741,-0.10391 -1.399246,-0.5763 -2.854454,-1.04974 -14.680057,-4.77607 -27.412248,-12.27355 -33.31213,-19.61618 -1.962345,-2.44221 -3.908078,-6.12141 -4.521729,-8.55017 -0.51031,-2.01973 -0.50397,-5.61501 0.01379,-7.81175 1.533856,-6.508 7.832643,-13.43155 17.368301,-19.09101 5.580197,-3.311866 12.856829,-6.569858 20.054906,-8.979249 1.692444,-0.566507 3.076805,-1.17884 3.119543,-1.379844 0.04226,-0.198753 -0.220483,-1.840238 -0.583872,-3.647747 -4.965221,-24.697127 -1.36266,-43.2443 9.460939,-48.708036 6.89656,-3.481371 16.783603,-2.04548 27.790145,4.035949 6.100705,3.37081 11.779526,7.514037 19.329396,14.10258 l 1.48037,1.291871 1.38558,-1.301126 c 6.39056,-6.000972 15.10192,-12.162991 22.0231,-15.578132 4.46936,-2.205331 7.45449,-3.269597 11.50937,-4.103346 5.52899,-1.136849 11.06587,-0.306592 14.89203,2.23307 5.34178,3.545676 8.72094,10.560772 9.88994,20.531415 0.82594,7.044598 0.14408,17.640491 -1.75743,27.309655 -0.43375,2.205649 -0.76133,4.031276 -0.72794,4.056949 0.0334,0.02566 1.25132,0.434099 2.70653,0.907613 4.3692,1.421704 11.14824,4.182817 15.01585,6.115971 7.03315,3.515387 11.28906,6.385507 15.56917,10.499597 4.07941,3.92117 6.47619,7.61085 7.51415,11.56751 0.54094,2.06207 0.55282,5.93956 0.0243,7.97869 -2.09936,8.10168 -10.40965,16.01128 -23.57151,22.43493 -3.82849,1.86849 -10.90716,4.72048 -14.55208,5.86301 -1.30969,0.41053 -2.42315,0.77266 -2.47435,0.80474 -0.0512,0.0321 0.15514,1.22688 0.45854,2.65514 1.72829,8.13576 2.28039,13.31262 2.28039,21.38225 0,5.46363 -0.10051,7.47641 -0.48847,9.78166 -3.00919,17.88063 -13.19916,24.32444 -29.72231,18.79545 -8.16363,-2.73173 -17.22647,-8.41586 -26.91606,-16.88153 l -2.88726,-2.52256 -2.93357,2.57823 c -12.858611,11.30108 -25.469614,18.07285 -34.948153,18.76622 -1.309687,0.0958 -3.274218,0.0996 -4.365625,0.008 z m 6.030425,-9.1171 c 6.238087,-1.28278 14.497862,-5.75528 22.601645,-12.23834 3.10264,-2.48212 6.874481,-5.7693 7.025331,-6.12261 0.039,-0.0914 -1.01364,-1.35031 -2.33924,-2.79761 -3.433461,-3.74867 -8.392641,-9.71348 -11.59429,-13.94537 -2.155415,-2.849 -2.883805,-3.63503 -3.368466,-3.63503 -2.379737,0 -14.778913,-2.01797 -21.237617,-3.45642 -1.949016,-0.43408 -3.573857,-0.75669 -3.610753,-0.71693 -0.147614,0.1591 -1.209609,5.83243 -1.697469,9.06814 -2.073738,13.75395 -0.888224,25.27497 3.18434,30.94591 2.163305,3.01235 5.816478,3.9717 11.036519,2.89826 z m 80.605586,-0.63169 c 1.60966,-0.77923 2.92005,-2.34065 4.11395,-4.90206 1.96476,-4.21527 2.65263,-8.31686 2.6545,-15.8282 0.001,-5.69622 -0.42897,-10.30441 -1.49939,-16.0541 -0.36573,-1.96453 -0.73129,-3.96172 -0.81235,-4.43819 -0.0811,-0.47648 -0.24724,-0.92803 -0.36927,-1.00345 -0.12203,-0.0754 -2.10028,0.28039 -4.39611,0.7907 -5.04068,1.12041 -12.0529,2.31377 -17.31436,2.94659 l -3.87972,0.46663 -1.67509,2.27251 c -2.91236,3.95102 -7.7684,9.89916 -11.33201,13.88052 -1.89356,2.11554 -3.43669,3.94106 -3.42918,4.05671 0.0193,0.29725 5.31521,4.82035 8.38665,7.16283 12.27657,9.3629 23.70373,13.48079 29.55238,10.64951 z m -41.59589,-27.19321 c 2.8413,-3.16083 6.53684,-7.55211 7.5333,-8.95156 l 0.54961,-0.77188 H 110.33629 99.287299 l 1.148441,1.45521 c 2.29565,2.90887 9.74237,11.37708 10.0047,11.37708 0.037,0 1.3249,-1.39898 2.86192,-3.10885 z m 4.04007,-18.58219 c 3.34698,-0.13574 7.24493,-0.3289 8.66211,-0.42922 l 2.5767,-0.18242 2.60708,-3.99605 c 5.26269,-8.06647 8.72338,-14.08175 12.87523,-22.37936 l 2.57896,-5.15413 -2.04466,-4.10629 c -3.96646,-7.96584 -7.82209,-14.64962 -13.14619,-22.789086 l -2.875,-4.395301 -1.51607,-0.160356 c -0.83384,-0.0882 -4.9855,-0.303922 -9.22591,-0.479388 -7.31774,-0.302805 -17.14354,-0.104066 -23.969031,0.484801 l -1.78097,0.153654 -2.614004,3.999069 c -4.981927,7.621667 -8.848532,14.345037 -12.866928,22.373367 l -2.54344,5.08153 2.758562,5.47001 c 4.096303,8.12265 7.856897,14.59188 12.610036,21.69265 l 2.778125,4.15027 1.984379,0.20119 c 1.94292,0.19699 11.150521,0.61094 15.081241,0.67802 1.09141,0.0186 4.72281,-0.0772 8.06978,-0.21296 z m -36.909358,-2.2466 c 0,-0.0688 -0.814446,-1.40828 -1.80988,-2.97656 -2.58509,-4.07275 -5.260953,-8.67575 -7.318097,-12.58854 -0.979424,-1.86292 -1.830969,-3.33692 -1.892318,-3.27557 -0.473885,0.47388 -5.597462,15.69534 -5.349775,15.89345 0.278895,0.22308 9.710185,2.10155 14.517987,2.89161 1.025993,0.16859 1.852083,0.1934 1.852083,0.0556 z m 65.229108,-0.6781 c 4.28878,-0.77464 8.20026,-1.58695 10.21642,-2.12167 l 0.96533,-0.25602 -1.11374,-3.50276 c -1.2874,-4.04896 -3.14496,-9.26505 -3.97903,-11.17325 l -0.57718,-1.32048 -1.27762,2.37881 c -2.58224,4.8079 -5.30781,9.60566 -7.28854,12.82986 -1.11747,1.81901 -2.1169,3.45612 -2.22096,3.63802 -0.27482,0.4804 0.26942,0.43166 5.27532,-0.47251 z m -89.078364,-8.52332 c 1.342893,-4.42584 3.939943,-11.49567 6.16942,-16.79474 l 1.583634,-3.76402 -1.446845,-3.37973 c -1.946367,-4.5466 -4.601117,-11.70621 -6.273556,-16.91922 l -1.372812,-4.27907 -3.346437,1.14646 c -11.994933,4.10932 -20.764775,8.94866 -26.370335,14.55154 -6.599931,6.59679 -6.51137,11.36341 0.334627,18.01028 4.093466,3.9744 11.849716,8.62311 19.646561,11.77517 3.598055,1.4546 9.015515,3.39326 9.529937,3.41032 0.290139,0.01 0.719759,-1.03455 1.545806,-3.75699 z m 114.030494,2.06565 c 7.77652,-2.82318 13.35918,-5.53906 18.5625,-9.03037 8.40033,-5.63643 12.08299,-11.33912 10.46613,-16.20704 -1.95081,-5.87333 -12.22389,-13.58508 -24.75363,-18.58193 -4.85173,-1.93487 -9.5409,-3.42962 -9.65996,-3.07928 -0.0592,0.17425 -0.99198,2.99572 -2.07281,6.26994 -1.67683,5.07969 -4.02337,11.29469 -6.24542,16.54149 l -0.56239,1.32793 1.60687,3.8038 c 2.11769,5.01302 4.67909,11.92153 6.21303,16.75752 0.68083,2.14643 1.35313,3.9026 1.49401,3.9026 0.14087,0 2.36912,-0.76709 4.95167,-1.70466 z M 71.377776,110.26883 c 2.089052,-3.98407 4.69727,-8.53172 7.301021,-12.729947 0.980424,-1.580814 1.743816,-2.912983 1.696424,-2.960375 -0.203766,-0.203766 -13.534562,2.279068 -15.883295,2.958232 -0.254661,0.07364 -0.46302,0.311629 -0.46302,0.528868 0,0.840192 5.145359,15.708952 5.43611,15.708952 0.04099,0 0.901729,-1.57758 1.91276,-3.50573 z m 81.664044,-1.44707 c 1.72097,-4.74413 3.68358,-10.918061 3.52205,-11.079587 -0.40106,-0.401058 -16.01857,-3.422221 -16.28962,-3.151179 -0.0566,0.05665 0.96212,1.806516 2.26393,3.888591 2.46122,3.936405 4.81879,8.017905 7.21154,12.484845 1.08601,2.02743 1.45322,2.51896 1.63679,2.19095 0.13016,-0.23258 0.87505,-2.18272 1.65531,-4.33362 z M 66.542447,87.999799 c 5.054378,-1.106392 10.653107,-2.063115 16.348141,-2.7936 2.297517,-0.294698 4.226425,-0.535813 4.286459,-0.535813 0.06003,0 0.968555,-1.16086 2.018935,-2.579688 3.516007,-4.749332 8.346657,-10.588138 12.505398,-15.11527 1.12004,-1.219256 1.99307,-2.350349 1.94005,-2.513542 -0.15235,-0.468976 -4.792091,-4.48097 -8.127111,-7.027534 -8.262413,-6.309046 -16.138051,-10.329516 -22.355111,-11.41217 -2.452296,-0.427048 -5.631709,-0.184817 -7.136678,0.543726 -3.367061,1.629966 -5.85979,6.777684 -6.728557,13.895102 -0.668457,5.476378 -0.217221,15.039007 1.0425,22.092709 0.867558,4.857808 1.312799,6.595806 1.659679,6.478545 0.17213,-0.05819 2.217962,-0.522795 4.546295,-1.032465 z M 159.23454,87.77924 c 0.45263,-1.798103 1.56926,-8.539612 1.93923,-11.707813 0.44384,-3.800782 0.44106,-13.649627 -0.005,-16.404167 -1.13628,-7.022679 -3.35189,-11.547882 -6.42052,-13.113377 -5.80966,-2.96387 -17.75767,1.415241 -29.99786,10.994634 -2.78858,2.182394 -8.06979,6.72366 -8.06979,6.939142 0,0.06974 1.1744,1.394929 2.60978,2.944866 3.3349,3.601061 7.80156,8.966996 11.32065,13.59984 1.51988,2.000911 2.81275,3.638021 2.87304,3.638021 0.0603,0 1.98941,0.240271 4.28693,0.533934 5.32181,0.68022 12.50308,1.91656 16.74502,2.88285 4.52447,1.030647 4.37881,1.040154 4.71815,-0.30793 z m -37.99623,-4.299479 c -0.60104,-1.027383 -6.17265,-7.540125 -9.26531,-10.830383 l -1.72437,-1.83455 -1.74476,1.834881 c -2.619,2.754286 -9.285561,10.64591 -9.285311,10.991604 5e-5,0.05667 4.989341,0.103031 11.087311,0.103031 7.31828,0 11.03461,-0.08994 10.93244,-0.264583 z"
       id="path882"
       inkscape:connector-curvature="0"
       sodipodi:nodetypes="cccccsccsscssssccssssccsssccccccsscscsccccscsssccssccccccccsccccscscccccsscccsscssccsscsscsscccccsccccccscccscsccsssccscccsscscsccccccssscssscssscccssccccssscssssscccsccssscssscccccccsc"
       inkscape:transform-center-x="8.5526249"
       inkscape:transform-center-y="21.648832" />
  </g>
</svg>
