<?xml version="1.0" encoding="UTF-8" standalone="no"?>
<!-- Created with Inkscape (http://www.inkscape.org/) -->

<svg
   xmlns:dc="http://purl.org/dc/elements/1.1/"
   xmlns:cc="http://creativecommons.org/ns#"
   xmlns:rdf="http://www.w3.org/1999/02/22-rdf-syntax-ns#"
   xmlns:svg="http://www.w3.org/2000/svg"
   xmlns="http://www.w3.org/2000/svg"
   xmlns:xlink="http://www.w3.org/1999/xlink"
   xmlns:sodipodi="http://sodipodi.sourceforge.net/DTD/sodipodi-0.dtd"
   xmlns:inkscape="http://www.inkscape.org/namespaces/inkscape"
   width="128.40805mm"
   height="96.427765mm"
   viewBox="0 0 128.40805 96.427765"
   version="1.1"
   id="svg864"
   inkscape:version="0.92.5 (2060ec1f9f, 2020-04-08)"
   sodipodi:docname="symfony-form.svg">
  <defs
     id="defs858">
    <linearGradient
       inkscape:collect="always"
       xlink:href="#linearGradient4683"
       id="linearGradient882"
       gradientUnits="userSpaceOnUse"
       gradientTransform="matrix(0.78579484,0,0,0.78579484,-38.712116,-50.402624)"
       x1="71.328979"
       y1="144.48581"
       x2="146.54631"
       y2="193.24475" />
    <linearGradient
       inkscape:collect="always"
       id="linearGradient4683">
      <stop
         style="stop-color:#72dc7e;stop-opacity:0.99532712"
         offset="0"
         id="stop4679" />
      <stop
         style="stop-color:#1f5825;stop-opacity:1"
         offset="1"
         id="stop4681" />
    </linearGradient>
    <linearGradient
       inkscape:collect="always"
       xlink:href="#linearGradient4683"
       id="linearGradient1474"
       gradientUnits="userSpaceOnUse"
       gradientTransform="matrix(0.78579484,0,0,0.78579484,-38.712116,-50.402624)"
       x1="71.328979"
       y1="144.48581"
       x2="146.54631"
       y2="193.24475" />
  </defs>
  <sodipodi:namedview
     id="base"
     pagecolor="#ffffff"
     bordercolor="#666666"
     borderopacity="1.0"
     inkscape:pageopacity="0.0"
     inkscape:pageshadow="2"
     inkscape:zoom="0.98994949"
     inkscape:cx="21.195533"
     inkscape:cy="267.43187"
     inkscape:document-units="mm"
     inkscape:current-layer="layer1"
     showgrid="false"
     fit-margin-top="0"
     fit-margin-left="0"
     fit-margin-right="0"
     fit-margin-bottom="0"
     inkscape:window-width="1920"
     inkscape:window-height="1080"
     inkscape:window-x="1920"
     inkscape:window-y="0"
     inkscape:window-maximized="0" />
  <metadata
     id="metadata861">
    <rdf:RDF>
      <cc:Work
         rdf:about="">
        <dc:format>image/svg+xml</dc:format>
        <dc:type
           rdf:resource="http://purl.org/dc/dcmitype/StillImage" />
        <dc:title></dc:title>
      </cc:Work>
    </rdf:RDF>
  </metadata>
  <g
     inkscape:label="Layer 1"
     inkscape:groupmode="layer"
     id="layer1"
     transform="translate(-16.634837,-64.509627)">
    <g
       transform="translate(56.298238,14.151218)"
       id="g6027">
      <rect
         y="83.054031"
         x="25.012499"
         height="61.232143"
         width="61.232143"
         id="rect5973"
         style="fill:#000000;fill-opacity:1;fill-rule:nonzero;stroke:#008092;stroke-width:5;stroke-miterlimit:4;stroke-dasharray:none;stroke-opacity:1" />
      <g
         id="text5977"
         style="font-style:normal;font-weight:normal;font-size:10.58333302px;line-height:1.25;font-family:sans-serif;letter-spacing:0px;word-spacing:0px;fill:#fffff2;fill-opacity:1;stroke:none;stroke-width:0.26458332"
         aria-label="A">
        <path
           id="path6013"
           style="font-style:normal;font-variant:normal;font-weight:bold;font-stretch:normal;font-size:52.91666794px;font-family:Waree;-inkscape-font-specification:'Waree, Bold';font-variant-ligatures:normal;font-variant-caps:normal;font-variant-numeric:normal;font-feature-settings:normal;text-align:start;writing-mode:lr-tb;text-anchor:start;fill:#fffff2;fill-opacity:1;stroke-width:0.26458332"
           d="M 63.418792,125.93033 H 47.864186 l -2.454631,7.028 h -9.99939 L 49.698699,94.381871 h 11.859742 l 14.288533,38.576459 h -9.999389 z m -13.074138,-7.15718 h 10.567831 l -5.270996,-15.3479 z"
           inkscape:connector-curvature="0" />
      </g>
    </g>
    <path
       style="opacity:1;vector-effect:none;fill:url(#linearGradient1474);fill-opacity:1;stroke-width:3.2077291;stroke-linecap:butt;stroke-linejoin:miter;stroke-miterlimit:4;stroke-dasharray:none;stroke-dashoffset:0;stroke-opacity:1"
       inkscape:connector-curvature="0"
       d="m 67.771657,65.509627 h -36.11904 c -7.73063,0 -14.01778,7.18536 -14.01778,16.03869 0,8.85334 6.28715,16.03868 14.01778,16.03868 h 36.11904 c 7.73062,0 14.01777,-7.18534 14.01777,-16.03868 0,-8.85333 -6.28715,-16.03869 -14.01777,-16.03869 z m -33.32831,23.92964 -8.24387,-8.24387 2.24541,-2.24531 5.99846,5.99844 11.29121,-11.29128 2.2454,2.24542 z"
       id="path4551" />
    <path
       id="path839"
       d="m 67.771657,65.509627 h -36.11904 c -7.73063,0 -14.01778,7.18536 -14.01778,16.03869 0,8.85334 6.28715,16.03868 14.01778,16.03868 h 36.11904 c 7.73062,0 14.01777,-7.18534 14.01777,-16.03868 0,-8.85333 -6.28715,-16.03869 -14.01777,-16.03869 z m -33.32831,23.92964 -8.24387,-8.24387 2.24541,-2.24531 5.99846,5.99844 11.29121,-11.29128 2.2454,2.24542 z"
       inkscape:connector-curvature="0"
       style="opacity:1;vector-effect:none;fill:url(#linearGradient882);fill-opacity:1;stroke:#70dc7c;stroke-width:2;stroke-linecap:butt;stroke-linejoin:miter;stroke-miterlimit:4;stroke-dasharray:none;stroke-dashoffset:0;stroke-opacity:0.99607843" />
    <path
       style="fill:#ff4f87;fill-opacity:1;stroke-width:0.01145953"
       inkscape:connector-curvature="0"
       d="m 54.420278,90.65673 -1.37939,3.69189 1.04908,0.92442 c 2.97829,2.61687 6.36804,5.0759 10.22996,7.40075 4.87689,2.93774 8.61448,4.66521 13.50575,6.25751 l 1.34543,0.44302 -0.20668,0.2417 c -0.12584,0.137 -1.29691,0.89217 -2.60239,1.68632 -1.31721,0.78709 -2.38257,1.47535 -2.37172,1.53978 0.0119,0.065 0.1779,0.37195 0.38305,0.68933 l 0.35138,0.57764 0.62286,-0.11667 c 0.33493,-0.0621 1.37177,-0.1952 2.30957,-0.30406 0.92205,-0.10632 2.85379,-0.34971 4.26383,-0.53438 1.42572,-0.18719 2.60868,-0.29367 2.63571,-0.23128 0.0162,0.0556 0.0566,0.0325 0.0688,-0.0535 0.0247,-0.0794 0.0853,-0.11385 0.15964,-0.0592 0.13375,0.1116 3.54188,-0.51025 5.22604,-0.95582 3.16589,-0.83363 6.77812,-2.89018 7.08283,-4.03195 0.2218,-0.82812 0.0416,-1.10787 -2.34064,-3.67027 -2.48114,-2.65504 -5.37024,-5.861778 -8.07915,-8.964038 -3.20403,-3.68196 -3.80764,-4.16049 -4.21609,-3.33581 -0.17506,0.35348 0.12723,1.20591 1.10307,3.1265 0.31107,0.60073 0.5364,1.08183 0.50493,1.08687 -0.0474,0.007 -1.80598,-1.97077 -3.33566,-3.76875 -0.53883,-0.63897 -1.03096,-1.19446 -1.07614,-1.2205 -0.0901,-0.0523 -1.28159,0.42265 -1.23205,0.49814 0.018,0.0222 0.57476,1.09231 1.24852,2.39403 1.2102,2.3251 1.98119,4.04499 2.18673,4.88795 0.0948,0.39354 0.0928,0.42717 -0.0828,0.31356 -0.11239,-0.0655 -0.94737,-0.4569 -1.85868,-0.86953 -1.28938,-0.58552 -2.35385,-1.15709 -4.8631,-2.61458 -4.05764,-2.368512 -6.57842,-4.066092 -11.75995,-7.939312 -1.88173,-1.40808 -2.27334,-1.67057 -2.70082,-1.80214 -0.6952,-0.2054 -1.1763,0.005 -1.4455,0.66586 -0.22881,0.579 -0.1793,0.59607 -1.5389,-0.46203 -0.49295,-0.37969 -0.923,-0.71102 -0.97909,-0.74381 -0.1464,-0.0849 -0.8014,1.47178 -2.20996,5.25179 z"
       id="path4-4"
       inkscape:transform-center-x="-7.8400288"
       inkscape:transform-center-y="-4.7943718" />
    <g
       id="g1492"
       transform="translate(0,94.078874)">
      <path
         inkscape:transform-center-y="28.280213"
         inkscape:transform-center-x="10.772699"
         inkscape:connector-curvature="0"
         id="path835"
         d="m 34.096347,59.024527 c -2.62721,-1.23402 -3.74174,-3.52755 -2.80438,-5.77099 1.08688,-2.60127 4.34608,-3.46746 6.17299,-1.64057 1.39272,1.39272 1.39252,3.02799 -3.5e-4,4.3626 -2.14125,2.05146 0.32105,2.61241 3.1755,0.72343 3.23403,-2.14018 5.03949,-6.79443 7.59046,-19.56738 0.95481,-4.78075 1.96346,-9.43889 2.24147,-10.35144 l 0.50546,-1.65917 -2.14696,-1.92511 c -4.77754,-4.283861 -9.30034,-4.990391 -10.86315,-1.697011 -0.78486,1.653961 -0.41379,2.615801 2.18663,5.667861 2.46366,2.89156 3.90531,5.54918 3.90762,7.20356 0.006,4.66376 -4.21501,8.316 -9.58882,8.29573 -5.55951,-0.021 -9.94321,-3.25791 -9.94321,-7.34199 0,-2.01173 1.0576,-3.22145 2.81635,-3.22145 2.3105,0 3.68336,2.14161 2.77908,4.33529 -0.87583,2.12464 -0.8515,2.8831 0.11274,3.51488 2.97787,1.95118 6.85148,0.2313 6.85148,-3.04206 0,-1.13192 -0.31258,-1.65703 -2.23001,-3.74643 -2.82078,-3.07375 -3.81817,-5.07646 -3.81433,-7.659 0.004,-2.37118 0.9016,-4.285841 2.82558,-6.024021 2.04278,-1.84555 4.08923,-2.50663 7.14024,-2.3066 3.11541,0.20426 5.2878,1.23257 8.32034,3.93845 l 2.1549,1.922771 1.10436,-2.540401 c 3.76951,-8.6712 8.73386,-13.36304 14.58536,-13.78476 4.48641,-0.32333 7.64045,1.48183 7.7174,4.41693 0.0965,3.67983 -4.29068,5.17791 -6.0375,2.06163 -0.45419,-0.81027 -0.46311,-1.11069 -0.0621,-2.09327 0.93817,-2.2989 0.80023,-2.5437 -1.42812,-2.53445 -1.79765,0.008 -2.12024,0.12843 -3.25772,1.22107 -1.3184,1.26653 -2.31349,2.94827 -3.1747,5.36543 -0.66276,1.86006 -2.21318,9.000281 -2.21318,10.192351 v 0.92499 l 2.36718,-0.16936 c 2.56698,-0.18367 4.95928,-1.10036 4.95928,-1.9003 0,-0.27549 -0.24188,-0.96864 -0.53751,-1.540321 -0.45264,-0.87529 -0.4659,-1.18882 -0.084,-1.98555 1.06849,-2.2293 3.6948,-2.20665 4.6335,0.0399 0.92249,2.20782 -0.4302,4.504071 -3.55341,6.032111 -1.62322,0.79418 -2.57712,0.99904 -5.18222,1.11298 l -3.19281,0.13963 -0.61249,3.53676 c -2.53535,14.63991 -7.49861,23.35323 -15.34989,26.94766 -2.73763,1.25333 -6.08274,1.47944 -8.07097,0.54555 z"
         style="fill:#000000;stroke:#71dc7d;stroke-width:5;stroke-miterlimit:4;stroke-dasharray:none;stroke-opacity:0.99607843" />
      <path
         style="fill:#000000;stroke:#000000;stroke-width:0;stroke-miterlimit:4;stroke-dasharray:none;stroke-opacity:1"
         d="m 34.096347,59.024527 c -2.62721,-1.23402 -3.74174,-3.52755 -2.80438,-5.77099 1.08688,-2.60127 4.34608,-3.46746 6.17299,-1.64057 1.39272,1.39272 1.39252,3.02799 -3.5e-4,4.3626 -2.14125,2.05146 0.32105,2.61241 3.1755,0.72343 3.23403,-2.14018 5.03949,-6.79443 7.59046,-19.56738 0.95481,-4.78075 1.96346,-9.43889 2.24147,-10.35144 l 0.50546,-1.65917 -2.14696,-1.92511 c -4.77754,-4.283861 -9.30034,-4.990391 -10.86315,-1.697011 -0.78486,1.653961 -0.41379,2.615801 2.18663,5.667861 2.46366,2.89156 3.90531,5.54918 3.90762,7.20356 0.006,4.66376 -4.21501,8.316 -9.58882,8.29573 -5.55951,-0.021 -9.94321,-3.25791 -9.94321,-7.34199 0,-2.01173 1.0576,-3.22145 2.81635,-3.22145 2.3105,0 3.68336,2.14161 2.77908,4.33529 -0.87583,2.12464 -0.8515,2.8831 0.11274,3.51488 2.97787,1.95118 6.85148,0.2313 6.85148,-3.04206 0,-1.13192 -0.31258,-1.65703 -2.23001,-3.74643 -2.82078,-3.07375 -3.81817,-5.07646 -3.81433,-7.659 0.004,-2.37118 0.9016,-4.285841 2.82558,-6.024021 2.04278,-1.84555 4.08923,-2.50663 7.14024,-2.3066 3.11541,0.20426 5.2878,1.23257 8.32034,3.93845 l 2.1549,1.922771 1.10436,-2.540401 c 3.76951,-8.6712 8.73386,-13.36304 14.58536,-13.78476 4.48641,-0.32333 7.64045,1.48183 7.7174,4.41693 0.0965,3.67983 -4.29068,5.17791 -6.0375,2.06163 -0.45419,-0.81027 -0.46311,-1.11069 -0.0621,-2.09327 0.93817,-2.2989 0.80023,-2.5437 -1.42812,-2.53445 -1.79765,0.008 -2.12024,0.12843 -3.25772,1.22107 -1.3184,1.26653 -2.31349,2.94827 -3.1747,5.36543 -0.66276,1.86006 -2.21318,9.000281 -2.21318,10.192351 v 0.92499 l 2.36718,-0.16936 c 2.56698,-0.18367 4.95928,-1.10036 4.95928,-1.9003 0,-0.27549 -0.24188,-0.96864 -0.53751,-1.540321 -0.45264,-0.87529 -0.4659,-1.18882 -0.084,-1.98555 1.06849,-2.2293 3.6948,-2.20665 4.6335,0.0399 0.92249,2.20782 -0.4302,4.504071 -3.55341,6.032111 -1.62322,0.79418 -2.57712,0.99904 -5.18222,1.11298 l -3.19281,0.13963 -0.61249,3.53676 c -2.53535,14.63991 -7.49861,23.35323 -15.34989,26.94766 -2.73763,1.25333 -6.08274,1.47944 -8.07097,0.54555 z"
         id="path837"
         inkscape:connector-curvature="0"
         inkscape:transform-center-x="10.772699"
         inkscape:transform-center-y="28.280213" />
    </g>
  </g>
</svg>
