<?xml version="1.0" encoding="UTF-8" standalone="no"?>
<!-- Created with Inkscape (http://www.inkscape.org/) -->

<svg
   xmlns:dc="http://purl.org/dc/elements/1.1/"
   xmlns:cc="http://creativecommons.org/ns#"
   xmlns:rdf="http://www.w3.org/1999/02/22-rdf-syntax-ns#"
   xmlns:svg="http://www.w3.org/2000/svg"
   xmlns="http://www.w3.org/2000/svg"
   xmlns:sodipodi="http://sodipodi.sourceforge.net/DTD/sodipodi-0.dtd"
   xmlns:inkscape="http://www.inkscape.org/namespaces/inkscape"
   width="160.66013mm"
   height="141.82739mm"
   viewBox="0 0 160.66013 141.82739"
   version="1.1"
   id="svg5426"
   inkscape:version="0.92.5 (2060ec1f9f, 2020-04-08)"
   sodipodi:docname="symfony-adr.svg">
  <defs
     id="defs5420" />
  <sodipodi:namedview
     id="base"
     pagecolor="#ffffff"
     bordercolor="#666666"
     borderopacity="1.0"
     inkscape:pageopacity="0.0"
     inkscape:pageshadow="2"
     inkscape:zoom="0.7"
     inkscape:cx="86.221779"
     inkscape:cy="173.3302"
     inkscape:document-units="mm"
     inkscape:current-layer="layer1"
     showgrid="false"
     inkscape:snap-global="true"
     fit-margin-top="0"
     fit-margin-left="0"
     fit-margin-right="0"
     fit-margin-bottom="0"
     inkscape:window-width="1848"
     inkscape:window-height="1023"
     inkscape:window-x="1920"
     inkscape:window-y="27"
     inkscape:window-maximized="1" />
  <metadata
     id="metadata5423">
    <rdf:RDF>
      <cc:Work
         rdf:about="">
        <dc:format>image/svg+xml</dc:format>
        <dc:type
           rdf:resource="http://purl.org/dc/dcmitype/StillImage" />
        <dc:title></dc:title>
      </cc:Work>
    </rdf:RDF>
  </metadata>
  <g
     inkscape:label="Layer 1"
     inkscape:groupmode="layer"
     id="layer1"
     transform="translate(-22.512499,-39.744039)">
    <g
       id="g6027">
      <rect
         y="83.054031"
         x="25.012499"
         height="61.232143"
         width="61.232143"
         id="rect5973"
         style="fill:#000000;fill-opacity:1;fill-rule:nonzero;stroke:#008092;stroke-width:5;stroke-miterlimit:4;stroke-dasharray:none;stroke-opacity:1" />
      <g
         id="text5977"
         style="font-style:normal;font-weight:normal;font-size:10.58333302px;line-height:1.25;font-family:sans-serif;letter-spacing:0px;word-spacing:0px;fill:#fffff2;fill-opacity:1;stroke:none;stroke-width:0.26458332"
         aria-label="A">
        <path
           id="path6013"
           style="font-style:normal;font-variant:normal;font-weight:bold;font-stretch:normal;font-size:52.91666794px;font-family:Waree;-inkscape-font-specification:'Waree, Bold';font-variant-ligatures:normal;font-variant-caps:normal;font-variant-numeric:normal;font-feature-settings:normal;text-align:start;writing-mode:lr-tb;text-anchor:start;fill:#fffff2;fill-opacity:1;stroke-width:0.26458332"
           d="M 63.418792,125.93033 H 47.864186 l -2.454631,7.028 h -9.99939 L 49.698699,94.381871 h 11.859742 l 14.288533,38.576459 h -9.999389 z m -13.074138,-7.15718 h 10.567831 l -5.270996,-15.3479 z"
           inkscape:connector-curvature="0" />
      </g>
    </g>
    <g
       id="g6022"
       transform="translate(-11.717262,-28.726191)">
      <rect
         y="70.97023"
         x="111.01131"
         height="61.232143"
         width="61.232143"
         id="rect5973-5"
         style="fill:#000000;fill-opacity:1;fill-rule:nonzero;stroke:#008092;stroke-width:5;stroke-miterlimit:4;stroke-dasharray:none;stroke-opacity:1" />
      <g
         id="text5977-9"
         style="font-style:normal;font-weight:normal;font-size:10.58333302px;line-height:1.25;font-family:sans-serif;letter-spacing:0px;word-spacing:0px;fill:#fffff2;fill-opacity:1;stroke:none;stroke-width:0.26458332"
         aria-label="D">
        <path
           id="path6010"
           style="font-style:normal;font-variant:normal;font-weight:bold;font-stretch:normal;font-size:52.91666794px;font-family:Waree;-inkscape-font-specification:'Waree, Bold';font-variant-ligatures:normal;font-variant-caps:normal;font-variant-numeric:normal;font-feature-settings:normal;text-align:start;writing-mode:lr-tb;text-anchor:start;fill:#fffff2;fill-opacity:1;stroke-width:0.26458332"
           d="m 149.52095,101.54754 q 0,-5.78776 -3.22977,-8.759155 -3.22978,-2.971395 -9.30176,-2.971395 h -3.56568 v 23.53862 h 3.56568 q 6.04614,0 9.27592,-2.99724 3.25561,-2.99723 3.25561,-8.81083 z M 123.47603,82.298069 h 10.49032 q 3.84989,0 6.48539,0.206706 2.6355,0.180868 5.29683,0.749308 2.66134,0.542603 4.75424,1.679484 2.11873,1.111044 3.9274,2.868043 5.34852,5.167643 5.34852,13.74593 0,3.15226 -0.72347,5.86528 -0.72347,2.71301 -1.93787,4.67671 -1.2144,1.93787 -2.89388,3.48816 -1.65365,1.5503 -3.46232,2.50631 -1.78284,0.95601 -3.77238,1.55029 -4.34082,1.24024 -13.02246,1.24024 h -10.49032 z"
           inkscape:connector-curvature="0" />
      </g>
    </g>
    <g
       id="g6032"
       transform="translate(40.443453,-17.764881)">
      <rect
         y="135.60417"
         x="78.997025"
         height="61.232143"
         width="61.232143"
         id="rect5973-6"
         style="fill:#000000;fill-opacity:1;fill-rule:nonzero;stroke:#008092;stroke-width:5;stroke-miterlimit:4;stroke-dasharray:none;stroke-opacity:1" />
      <g
         id="text5977-92"
         style="font-style:normal;font-weight:normal;font-size:10.58333302px;line-height:1.25;font-family:sans-serif;letter-spacing:0px;word-spacing:0px;fill:#fffff2;fill-opacity:1;stroke:none;stroke-width:0.26458332"
         aria-label="R">
        <path
           id="path6016"
           style="font-style:normal;font-variant:normal;font-weight:bold;font-stretch:normal;font-size:52.91666794px;font-family:Waree;-inkscape-font-specification:'Waree, Bold';font-variant-ligatures:normal;font-variant-caps:normal;font-variant-numeric:normal;font-feature-settings:normal;text-align:start;writing-mode:lr-tb;text-anchor:start;fill:#fffff2;fill-opacity:1;stroke-width:0.26458332"
           d="m 112.17108,159.05013 q 0,-2.71301 -1.4211,-3.79821 -1.4211,-1.11105 -4.41834,-1.11105 h -4.18579 v 9.89604 h 4.18579 q 3.22978,0 4.52169,-1.2144 1.31775,-1.21439 1.31775,-3.77238 z m 9.94771,-1.47277 q 0,7.57059 -7.41557,9.89603 2.24793,0.51677 3.82406,2.2996 1.60197,1.78284 3.10059,4.78007 l 5.40018,10.95541 h -10.59366 l -4.70256,-9.58598 q -1.31775,-2.71301 -2.79053,-3.84989 -1.44694,-1.16272 -3.97908,-1.16272 h -2.81637 v 14.59859 h -9.947712 v -38.57646 h 15.192872 q 4.15995,0 7.07967,0.74931 2.91972,0.74931 4.57337,2.19625 1.65364,1.44694 2.35127,3.33313 0.72347,1.86035 0.72347,4.36666 z"
           inkscape:connector-curvature="0" />
      </g>
    </g>
    <path
       style="fill:#ff4f87;fill-opacity:1;stroke-width:0.01034659"
       inkscape:connector-curvature="0"
       d="m 80.18972,107.04391 2.179144,3.08331 1.24725,-0.16114 c 3.53505,-0.46185 7.15429,-1.2914 10.90667,-2.51544 4.740016,-1.54463 7.964936,-3.03502 11.665126,-5.37653 l 1.02172,-0.64112 0.0841,0.27974 c 0.0433,0.16437 0.0418,1.38991 0.003,2.7282 -0.0502,1.34202 -0.0506,2.45768 0.005,2.48811 0.0563,0.0304 0.37898,0.0986 0.72919,0.14702 l 0.62634,0.10285 0.22259,-0.48509 c 0.12017,-0.26047 0.53828,-1.0322 0.92541,-1.72346 0.38116,-0.67922 1.16369,-2.11435 1.72942,-3.16599 0.57167,-1.06362 1.08399,-1.917549 1.14615,-1.899139 0.0514,0.0216 0.0537,-0.0189 -0.007,-0.0774 -0.0493,-0.063 -0.0457,-0.12368 0.0343,-0.14142 0.15414,-0.0242 1.38496,-2.66877 1.88557,-4.05651 0.94413,-2.60637 1.16111,-6.22701 0.42586,-7.09899 -0.5329,-0.633 -0.84128,-0.67608 -4.03404,-0.58124 -3.31461,0.10683 -7.26385,0.16384 -11.04111,0.16141 -4.47753,-0.0103 -5.153646,0.11363 -4.71734,0.86951 0.187,0.32398 1.00249,0.62047 2.98816,1.09123 0.62402,0.14334 1.1118,0.27405 1.09989,0.29807 -0.0179,0.0362 -2.44239,0.0554 -4.611296,0.027 -0.76838,-0.0133 -1.4483,-0.009 -1.4913,0.006 -0.086,0.0297 -0.31588,1.10493 -0.23221,1.11594 0.0263,8.9e-4 1.13925,0.25453 2.491296,0.56533 2.41839,0.55063 4.14479,1.04104 4.90422,1.39673 0.354,0.1668 0.37913,0.18786 0.20237,0.23887 -0.10751,0.0369 -0.83223,0.36663 -1.61188,0.73504 -1.1044,0.52023 -2.08479,0.89812 -4.481586,1.72448 -3.88483,1.32947 -6.47426,2.02306 -12.09559,3.22418 -2.042597,0.43534 -2.443911,0.54381 -2.761395,0.752889 -0.509631,0.34504 -0.587701,0.79028 -0.209082,1.35694 0.335468,0.4919 0.373666,0.46876 -1.133854,0.75947 -0.543511,0.10772 -1.017743,0.20163 -1.071483,0.21998 -0.139722,0.0483 0.742178,1.39747 2.975218,4.55186 z"
       id="path4" />
    <path
       style="fill:#ff4f87;fill-opacity:1;stroke-width:0.01034659"
       inkscape:connector-curvature="0"
       d="m 105.77089,75.993751 -2.17914,-3.08331 -1.24725,0.16114 c -3.535046,0.46185 -7.154286,1.2914 -10.90667,2.51544 -4.740016,1.54463 -7.964936,3.03502 -11.665126,5.37653 l -1.02172,0.64112 -0.0841,-0.27974 c -0.0433,-0.16437 -0.0418,-1.38991 -0.003,-2.7282 0.0502,-1.34202 0.0506,-2.45768 -0.005,-2.48811 -0.0563,-0.0304 -0.37898,-0.0986 -0.72919,-0.14702 l -0.62634,-0.10285 -0.22259,0.48509 c -0.12017,0.26047 -0.53828,1.0322 -0.92541,1.72346 -0.38116,0.67922 -1.16369,2.11435 -1.72942,3.16599 -0.57167,1.06362 -1.08399,1.91755 -1.14615,1.89914 -0.0514,-0.0216 -0.0537,0.0189 0.007,0.0774 0.0493,0.063 0.0457,0.12368 -0.0343,0.14142 -0.15414,0.0242 -1.38496,2.66877 -1.88557,4.05651 -0.94413,2.60637 -1.16111,6.22701 -0.42586,7.09899 0.5329,0.633 0.84128,0.67608 4.03404,0.58124 3.31461,-0.10683 7.26385,-0.16384 11.04111,-0.16141 4.477526,0.0103 5.153656,-0.11363 4.717336,-0.86951 -0.18699,-0.32398 -1.00248,-0.62047 -2.98816,-1.09123 -0.624016,-0.14334 -1.111796,-0.27405 -1.099886,-0.29807 0.0179,-0.0362 2.442396,-0.0554 4.611296,-0.027 0.76839,0.0133 1.448314,0.009 1.491304,-0.006 0.086,-0.0297 0.31588,-1.10493 0.23222,-1.11594 -0.0263,-9e-4 -1.139254,-0.25453 -2.491314,-0.56533 -2.41839,-0.55063 -4.144786,-1.04104 -4.904216,-1.39673 -0.354,-0.1668 -0.37913,-0.18786 -0.20237,-0.23887 0.10751,-0.0369 0.83223,-0.36663 1.61188,-0.73504 1.104396,-0.52023 2.084796,-0.89812 4.481596,-1.72448 3.884834,-1.32947 6.474254,-2.02306 12.09558,-3.22418 2.0426,-0.43534 2.44391,-0.54381 2.7614,-0.75289 0.50963,-0.34504 0.5877,-0.79028 0.20908,-1.35694 -0.33547,-0.4919 -0.37367,-0.46876 1.13385,-0.75947 0.54351,-0.10772 1.01774,-0.20163 1.07148,-0.21998 0.13973,-0.0483 -0.74217,-1.39747 -2.97521,-4.55186 z"
       id="path4-7" />
    <path
       style="fill:#ff4f87;fill-opacity:1;stroke-width:0.01145953"
       inkscape:connector-curvature="0"
       d="m 81.006128,136.07001 -1.379392,3.69189 1.049082,0.92442 c 2.97829,2.61687 6.36804,5.0759 10.229958,7.40075 4.876886,2.93774 8.614476,4.66521 13.505744,6.25751 l 1.34543,0.44302 -0.20668,0.2417 c -0.12584,0.137 -1.29691,0.89217 -2.60239,1.68632 -1.31721,0.78709 -2.38257,1.47535 -2.37172,1.53978 0.0119,0.065 0.1779,0.37195 0.38305,0.68933 l 0.35138,0.57764 0.62286,-0.11667 c 0.33493,-0.0621 1.37177,-0.1952 2.30957,-0.30406 0.92205,-0.10632 2.85379,-0.34971 4.26383,-0.53438 1.42573,-0.18719 2.60868,-0.29367 2.63572,-0.23128 0.0162,0.0556 0.0566,0.0325 0.0688,-0.0535 0.0247,-0.0794 0.0853,-0.11385 0.15964,-0.0592 0.13375,0.1116 3.54187,-0.51025 5.22604,-0.95582 3.16589,-0.83363 6.77812,-2.89018 7.08282,-4.03195 0.22181,-0.82812 0.0416,-1.10787 -2.34063,-3.67027 -2.48114,-2.65504 -5.37024,-5.86178 -8.07915,-8.96404 -3.20403,-3.68196 -3.80764,-4.16049 -4.21609,-3.33581 -0.17506,0.35348 0.12723,1.20591 1.10307,3.1265 0.31107,0.60073 0.5364,1.08183 0.50493,1.08687 -0.0474,0.007 -1.80598,-1.97077 -3.33566,-3.76875 -0.53883,-0.63897 -1.03096,-1.19446 -1.07614,-1.2205 -0.0901,-0.0523 -1.28159,0.42265 -1.23205,0.49814 0.018,0.0222 0.57476,1.09231 1.24852,2.39403 1.2102,2.3251 1.98118,4.04499 2.18673,4.88795 0.0948,0.39354 0.0928,0.42717 -0.0828,0.31356 -0.11239,-0.0655 -0.94737,-0.4569 -1.85868,-0.86953 -1.28938,-0.58552 -2.35385,-1.15709 -4.8631,-2.61458 -4.057648,-2.36851 -6.578428,-4.06609 -11.759955,-7.93931 -1.881733,-1.40808 -2.273339,-1.67057 -2.700825,-1.80214 -0.695199,-0.2054 -1.176291,0.005 -1.445498,0.66586 -0.228809,0.579 -0.1793,0.59607 -1.538895,-0.46203 -0.492956,-0.37969 -0.923001,-0.71102 -0.979093,-0.74381 -0.1464,-0.0849 -0.801399,1.47178 -2.209963,5.25179 z"
       id="path4-4"
       inkscape:transform-center-x="-7.8400288"
       inkscape:transform-center-y="-4.7943718" />
  </g>
</svg>
