<svg id="visual" viewBox="0 0 900 900" width="900" height="900" xmlns="http://www.w3.org/2000/svg" xmlns:xlink="http://www.w3.org/1999/xlink" version="1.1"><g stroke-width="1" stroke-linejoin="bevel" opacity="0.015"><path d="M397 401L460 376L436 282Z" fill="#ffffff" stroke="#ffffff"></path><path d="M436 282L291 323L397 401Z" fill="#000000" stroke="#000000"></path><path d="M291 323L279 373L397 401Z" fill="#c6c6c6" stroke="#c6c6c6"></path><path d="M460 376L538 281L436 282Z" fill="#5e5e5e" stroke="#5e5e5e"></path><path d="M533 195L374 182L436 282Z" fill="#1b1b1b" stroke="#1b1b1b"></path><path d="M436 282L374 182L291 323Z" fill="#000000" stroke="#000000"></path><path d="M567 504L566 378L460 376Z" fill="#e2e2e2" stroke="#e2e2e2"></path><path d="M460 376L566 378L538 281Z" fill="#919191" stroke="#919191"></path><path d="M589 193L533 195L538 281Z" fill="#c6c6c6" stroke="#c6c6c6"></path><path d="M538 281L533 195L436 282Z" fill="#5e5e5e" stroke="#5e5e5e"></path><path d="M277 489L404 532L397 401Z" fill="#303030" stroke="#303030"></path><path d="M397 401L486 530L460 376Z" fill="#e2e2e2" stroke="#e2e2e2"></path><path d="M385 68L325 163L374 182Z" fill="#e2e2e2" stroke="#e2e2e2"></path><path d="M374 182L325 163L291 323Z" fill="#1b1b1b" stroke="#1b1b1b"></path><path d="M291 323L197 296L279 373Z" fill="#ffffff" stroke="#ffffff"></path><path d="M279 373L277 489L397 401Z" fill="#5e5e5e" stroke="#5e5e5e"></path><path d="M404 532L486 530L397 401Z" fill="#c6c6c6" stroke="#c6c6c6"></path><path d="M325 163L197 296L291 323Z" fill="#777777" stroke="#777777"></path><path d="M279 373L224 479L277 489Z" fill="#000000" stroke="#000000"></path><path d="M566 378L616 263L538 281Z" fill="#777777" stroke="#777777"></path><path d="M486 530L567 504L460 376Z" fill="#e2e2e2" stroke="#e2e2e2"></path><path d="M566 378L660 297L616 263Z" fill="#919191" stroke="#919191"></path><path d="M616 263L589 193L538 281Z" fill="#c6c6c6" stroke="#c6c6c6"></path><path d="M533 195L471 99L374 182Z" fill="#e2e2e2" stroke="#e2e2e2"></path><path d="M171 377L224 479L279 373Z" fill="#474747" stroke="#474747"></path><path d="M305 616L379 625L404 532Z" fill="#5e5e5e" stroke="#5e5e5e"></path><path d="M197 296L171 377L279 373Z" fill="#c6c6c6" stroke="#c6c6c6"></path><path d="M598 123L471 99L533 195Z" fill="#000000" stroke="#000000"></path><path d="M726 403L660 297L566 378Z" fill="#303030" stroke="#303030"></path><path d="M616 263L682 236L589 193Z" fill="#000000" stroke="#000000"></path><path d="M486 530L530 574L567 504Z" fill="#303030" stroke="#303030"></path><path d="M421 661L530 574L486 530Z" fill="#777777" stroke="#777777"></path><path d="M421 661L486 530L404 532Z" fill="#1b1b1b" stroke="#1b1b1b"></path><path d="M385 68L263 110L325 163Z" fill="#1b1b1b" stroke="#1b1b1b"></path><path d="M325 163L162 197L197 296Z" fill="#c6c6c6" stroke="#c6c6c6"></path><path d="M471 99L385 68L374 182Z" fill="#000000" stroke="#000000"></path><path d="M263 110L162 197L325 163Z" fill="#e2e2e2" stroke="#e2e2e2"></path><path d="M197 296L122 276L171 377Z" fill="#e2e2e2" stroke="#e2e2e2"></path><path d="M589 193L598 123L533 195Z" fill="#e2e2e2" stroke="#e2e2e2"></path><path d="M471 99L416 0L385 68Z" fill="#ababab" stroke="#ababab"></path><path d="M682 236L598 123L589 193Z" fill="#5e5e5e" stroke="#5e5e5e"></path><path d="M305 616L404 532L277 489Z" fill="#303030" stroke="#303030"></path><path d="M660 297L682 236L616 263Z" fill="#919191" stroke="#919191"></path><path d="M127 232L122 276L197 296Z" fill="#1b1b1b" stroke="#1b1b1b"></path><path d="M236 623L305 616L277 489Z" fill="#1b1b1b" stroke="#1b1b1b"></path><path d="M162 197L127 232L197 296Z" fill="#ffffff" stroke="#ffffff"></path><path d="M421 661L560 601L530 574Z" fill="#303030" stroke="#303030"></path><path d="M530 574L560 601L567 504Z" fill="#ffffff" stroke="#ffffff"></path><path d="M567 504L726 403L566 378Z" fill="#303030" stroke="#303030"></path><path d="M660 297L818 269L682 236Z" fill="#474747" stroke="#474747"></path><path d="M122 276L98 369L171 377Z" fill="#000000" stroke="#000000"></path><path d="M171 377L93 497L224 479Z" fill="#919191" stroke="#919191"></path><path d="M224 479L236 623L277 489Z" fill="#c6c6c6" stroke="#c6c6c6"></path><path d="M0 282L98 369L122 276Z" fill="#ffffff" stroke="#ffffff"></path><path d="M294 660L421 661L379 625Z" fill="#ffffff" stroke="#ffffff"></path><path d="M379 625L421 661L404 532Z" fill="#e2e2e2" stroke="#e2e2e2"></path><path d="M708 521L726 403L567 504Z" fill="#303030" stroke="#303030"></path><path d="M203 0L203 89L263 110Z" fill="#919191" stroke="#919191"></path><path d="M263 110L203 89L162 197Z" fill="#ffffff" stroke="#ffffff"></path><path d="M162 197L89 109L127 232Z" fill="#474747" stroke="#474747"></path><path d="M134 620L236 623L224 479Z" fill="#303030" stroke="#303030"></path><path d="M305 616L294 660L379 625Z" fill="#e2e2e2" stroke="#e2e2e2"></path><path d="M589 663L664 562L560 601Z" fill="#c6c6c6" stroke="#c6c6c6"></path><path d="M560 601L664 562L567 504Z" fill="#ffffff" stroke="#ffffff"></path><path d="M506 0L416 0L471 99Z" fill="#c6c6c6" stroke="#c6c6c6"></path><path d="M385 68L335 0L263 110Z" fill="#777777" stroke="#777777"></path><path d="M236 623L294 660L305 616Z" fill="#ababab" stroke="#ababab"></path><path d="M416 0L335 0L385 68Z" fill="#777777" stroke="#777777"></path><path d="M664 562L708 521L567 504Z" fill="#1b1b1b" stroke="#1b1b1b"></path><path d="M567 0L506 0L471 99Z" fill="#000000" stroke="#000000"></path><path d="M98 369L93 497L171 377Z" fill="#c6c6c6" stroke="#c6c6c6"></path><path d="M467 725L589 663L560 601Z" fill="#ffffff" stroke="#ffffff"></path><path d="M664 562L790 569L708 521Z" fill="#e2e2e2" stroke="#e2e2e2"></path><path d="M467 725L560 601L421 661Z" fill="#c6c6c6" stroke="#c6c6c6"></path><path d="M685 0L567 0L598 123Z" fill="#ffffff" stroke="#ffffff"></path><path d="M598 123L567 0L471 99Z" fill="#ffffff" stroke="#ffffff"></path><path d="M414 824L467 725L421 661Z" fill="#303030" stroke="#303030"></path><path d="M236 623L230 734L294 660Z" fill="#474747" stroke="#474747"></path><path d="M414 824L467 789L467 725Z" fill="#c6c6c6" stroke="#c6c6c6"></path><path d="M93 497L134 620L224 479Z" fill="#000000" stroke="#000000"></path><path d="M113 0L89 109L203 89Z" fill="#777777" stroke="#777777"></path><path d="M203 89L89 109L162 197Z" fill="#c6c6c6" stroke="#c6c6c6"></path><path d="M0 231L0 282L122 276Z" fill="#474747" stroke="#474747"></path><path d="M98 369L0 417L93 497Z" fill="#474747" stroke="#474747"></path><path d="M335 0L203 0L263 110Z" fill="#ababab" stroke="#ababab"></path><path d="M838 515L814 372L726 403Z" fill="#777777" stroke="#777777"></path><path d="M726 403L818 269L660 297Z" fill="#ffffff" stroke="#ffffff"></path><path d="M682 236L708 63L598 123Z" fill="#1b1b1b" stroke="#1b1b1b"></path><path d="M779 165L708 63L682 236Z" fill="#919191" stroke="#919191"></path><path d="M818 269L779 165L682 236Z" fill="#1b1b1b" stroke="#1b1b1b"></path><path d="M0 231L122 276L127 232Z" fill="#919191" stroke="#919191"></path><path d="M93 497L0 614L134 620Z" fill="#1b1b1b" stroke="#1b1b1b"></path><path d="M814 372L818 269L726 403Z" fill="#303030" stroke="#303030"></path><path d="M0 282L0 417L98 369Z" fill="#777777" stroke="#777777"></path><path d="M89 109L0 231L127 232Z" fill="#1b1b1b" stroke="#1b1b1b"></path><path d="M139 720L230 734L236 623Z" fill="#ffffff" stroke="#ffffff"></path><path d="M768 0L685 0L708 63Z" fill="#e2e2e2" stroke="#e2e2e2"></path><path d="M708 63L685 0L598 123Z" fill="#1b1b1b" stroke="#1b1b1b"></path><path d="M0 417L0 512L93 497Z" fill="#ababab" stroke="#ababab"></path><path d="M134 620L139 720L236 623Z" fill="#1b1b1b" stroke="#1b1b1b"></path><path d="M708 521L838 515L726 403Z" fill="#919191" stroke="#919191"></path><path d="M674 718L790 569L664 562Z" fill="#c6c6c6" stroke="#c6c6c6"></path><path d="M674 718L664 562L589 663Z" fill="#000000" stroke="#000000"></path><path d="M203 0L113 0L203 89Z" fill="#777777" stroke="#777777"></path><path d="M89 109L0 69L0 231Z" fill="#000000" stroke="#000000"></path><path d="M414 824L421 661L294 660Z" fill="#5e5e5e" stroke="#5e5e5e"></path><path d="M467 725L631 813L589 663Z" fill="#e2e2e2" stroke="#e2e2e2"></path><path d="M631 813L674 718L589 663Z" fill="#474747" stroke="#474747"></path><path d="M900 493L838 515L900 589Z" fill="#ffffff" stroke="#ffffff"></path><path d="M790 569L838 515L708 521Z" fill="#ababab" stroke="#ababab"></path><path d="M814 372L900 297L818 269Z" fill="#e2e2e2" stroke="#e2e2e2"></path><path d="M0 682L139 720L134 620Z" fill="#777777" stroke="#777777"></path><path d="M290 821L414 824L294 660Z" fill="#303030" stroke="#303030"></path><path d="M779 165L806 62L708 63Z" fill="#919191" stroke="#919191"></path><path d="M900 192L806 62L779 165Z" fill="#1b1b1b" stroke="#1b1b1b"></path><path d="M900 192L779 165L818 269Z" fill="#474747" stroke="#474747"></path><path d="M290 821L294 660L230 734Z" fill="#303030" stroke="#303030"></path><path d="M467 789L631 813L467 725Z" fill="#000000" stroke="#000000"></path><path d="M113 0L0 69L89 109Z" fill="#c6c6c6" stroke="#c6c6c6"></path><path d="M900 493L900 365L814 372Z" fill="#919191" stroke="#919191"></path><path d="M0 512L0 614L93 497Z" fill="#303030" stroke="#303030"></path><path d="M900 365L900 297L814 372Z" fill="#c6c6c6" stroke="#c6c6c6"></path><path d="M806 62L768 0L708 63Z" fill="#1b1b1b" stroke="#1b1b1b"></path><path d="M204 838L290 821L230 734Z" fill="#303030" stroke="#303030"></path><path d="M900 297L900 192L818 269Z" fill="#5e5e5e" stroke="#5e5e5e"></path><path d="M806 62L900 0L768 0Z" fill="#1b1b1b" stroke="#1b1b1b"></path><path d="M838 515L900 493L814 372Z" fill="#c6c6c6" stroke="#c6c6c6"></path><path d="M900 589L838 515L790 569Z" fill="#000000" stroke="#000000"></path><path d="M590 900L631 813L467 789Z" fill="#000000" stroke="#000000"></path><path d="M900 660L900 589L790 569Z" fill="#303030" stroke="#303030"></path><path d="M113 0L0 0L0 69Z" fill="#ababab" stroke="#ababab"></path><path d="M0 614L0 682L134 620Z" fill="#000000" stroke="#000000"></path><path d="M139 720L204 838L230 734Z" fill="#000000" stroke="#000000"></path><path d="M68 801L204 838L139 720Z" fill="#474747" stroke="#474747"></path><path d="M290 821L410 900L414 824Z" fill="#474747" stroke="#474747"></path><path d="M414 824L473 900L467 789Z" fill="#c6c6c6" stroke="#c6c6c6"></path><path d="M631 813L696 802L674 718Z" fill="#1b1b1b" stroke="#1b1b1b"></path><path d="M835 699L790 569L674 718Z" fill="#474747" stroke="#474747"></path><path d="M696 802L835 699L674 718Z" fill="#919191" stroke="#919191"></path><path d="M268 900L410 900L290 821Z" fill="#5e5e5e" stroke="#5e5e5e"></path><path d="M631 813L700 900L696 802Z" fill="#000000" stroke="#000000"></path><path d="M900 192L900 62L806 62Z" fill="#5e5e5e" stroke="#5e5e5e"></path><path d="M410 900L473 900L414 824Z" fill="#c6c6c6" stroke="#c6c6c6"></path><path d="M0 682L68 801L139 720Z" fill="#ffffff" stroke="#ffffff"></path><path d="M236 900L268 900L290 821Z" fill="#e2e2e2" stroke="#e2e2e2"></path><path d="M236 900L290 821L204 838Z" fill="#ababab" stroke="#ababab"></path><path d="M835 699L900 660L790 569Z" fill="#777777" stroke="#777777"></path><path d="M900 824L900 660L835 699Z" fill="#5e5e5e" stroke="#5e5e5e"></path><path d="M123 900L236 900L204 838Z" fill="#c6c6c6" stroke="#c6c6c6"></path><path d="M473 900L590 900L467 789Z" fill="#5e5e5e" stroke="#5e5e5e"></path><path d="M696 802L769 834L835 699Z" fill="#777777" stroke="#777777"></path><path d="M900 62L900 0L806 62Z" fill="#777777" stroke="#777777"></path><path d="M0 682L0 784L68 801Z" fill="#919191" stroke="#919191"></path><path d="M68 801L123 900L204 838Z" fill="#919191" stroke="#919191"></path><path d="M700 900L769 834L696 802Z" fill="#5e5e5e" stroke="#5e5e5e"></path><path d="M0 900L123 900L68 801Z" fill="#5e5e5e" stroke="#5e5e5e"></path><path d="M590 900L700 900L631 813Z" fill="#ffffff" stroke="#ffffff"></path><path d="M700 900L762 900L769 834Z" fill="#5e5e5e" stroke="#5e5e5e"></path><path d="M769 834L900 824L835 699Z" fill="#919191" stroke="#919191"></path><path d="M900 900L900 824L769 834Z" fill="#1b1b1b" stroke="#1b1b1b"></path><path d="M0 784L0 900L68 801Z" fill="#e2e2e2" stroke="#e2e2e2"></path><path d="M762 900L900 900L769 834Z" fill="#ffffff" stroke="#ffffff"></path></g></svg>